<?xml version="1.0" encoding="UTF-8"?>
<!DOCTYPE svg PUBLIC "-//W3C//DTD SVG 1.1//EN" "http://www.w3.org/Graphics/SVG/1.1/DTD/svg11.dtd">
<svg xmlns="http://www.w3.org/2000/svg" version="1.1" width="859px" height="871px" style="shape-rendering:geometricPrecision; text-rendering:geometricPrecision; image-rendering:optimizeQuality; fill-rule:evenodd; clip-rule:evenodd" xmlns:xlink="http://www.w3.org/1999/xlink">
<g><path style="opacity:1" fill="#fefefe" d="M -0.5,-0.5 C 285.833,-0.5 572.167,-0.5 858.5,-0.5C 858.5,289.833 858.5,580.167 858.5,870.5C 572.167,870.5 285.833,870.5 -0.5,870.5C -0.5,580.167 -0.5,289.833 -0.5,-0.5 Z"/></g>
<g><path style="opacity:1" fill="#cc7c21" d="M 524.5,47.5 C 537.402,58.5702 549.902,70.2369 562,82.5C 576.305,99.0279 579.972,117.695 573,138.5C 563.267,158.76 558.601,180.094 559,202.5C 563.651,226.481 578.151,240.315 602.5,244C 608.016,244.173 613.349,244.673 618.5,245.5C 617.167,245.5 615.833,245.5 614.5,245.5C 616.811,270.644 630.477,284.81 655.5,288C 670.294,288.982 684.961,287.982 699.5,285C 728.675,278.232 758.009,272.232 787.5,267C 798.793,265.737 809.793,266.903 820.5,270.5C 820.667,429.167 820.5,587.834 820,746.5C 813.142,803.692 781.309,837.192 724.5,847C 604.5,847.5 484.5,847.667 364.5,847.5C 358.043,837.876 350.043,829.709 340.5,823C 314.777,806.807 287.443,793.807 258.5,784C 216.289,770.373 174.289,756.539 132.5,742.5C 123.756,728.697 114.256,715.364 104,702.5C 81.6891,677.229 53.8558,667.562 20.5,673.5C 20.3333,497.166 20.5,320.833 21,144.5C 27.3797,98.7885 52.2131,67.9551 95.5,52C 102.685,49.8264 110.019,48.493 117.5,48C 253.166,47.5 388.833,47.3333 524.5,47.5 Z"/></g>
<g><path style="opacity:1" fill="#b24b11" d="M 524.5,47.5 C 531.167,47.5 537.833,47.5 544.5,47.5C 550.104,51.765 555.437,56.4317 560.5,61.5C 573.883,73.602 583.216,88.2686 588.5,105.5C 591.407,123.463 588.574,140.463 580,156.5C 573.905,171.968 571.572,187.968 573,204.5C 576,216.166 583.167,223.999 594.5,228C 600.979,230.329 607.646,231.495 614.5,231.5C 619.167,232.833 623.833,232.833 628.5,231.5C 638.853,231.45 649.186,230.95 659.5,230C 699.076,223.126 738.743,216.793 778.5,211C 792.575,210.186 806.575,210.352 820.5,211.5C 820.5,215.833 820.5,220.167 820.5,224.5C 804.493,223.101 788.493,223.268 772.5,225C 738.44,230.389 704.44,236.056 670.5,242C 656.558,243.81 642.558,244.977 628.5,245.5C 625.167,245.5 621.833,245.5 618.5,245.5C 613.349,244.673 608.016,244.173 602.5,244C 578.151,240.315 563.651,226.481 559,202.5C 558.601,180.094 563.267,158.76 573,138.5C 579.972,117.695 576.305,99.0279 562,82.5C 549.902,70.2369 537.402,58.5702 524.5,47.5 Z"/></g>
<g><path style="opacity:1" fill="#cb7b20" d="M 544.5,47.5 C 552.5,47.5 560.5,47.5 568.5,47.5C 564.808,51.5472 562.141,56.2138 560.5,61.5C 555.437,56.4317 550.104,51.765 544.5,47.5 Z"/></g>
<g><path style="opacity:1" fill="#1b8e51" d="M 568.5,47.5 C 575.5,47.5 582.5,47.5 589.5,47.5C 581.774,52.0576 576.44,58.5576 573.5,67C 573.934,69.6342 574.767,72.1342 576,74.5C 579.465,78.9668 583.298,83.1334 587.5,87C 601.945,97.6133 615.278,109.447 627.5,122.5C 630.222,130.282 634.222,137.282 639.5,143.5C 642.357,152.948 643.191,162.615 642,172.5C 638.132,185.771 634.466,199.105 631,212.5C 629.756,218.785 628.923,225.118 628.5,231.5C 624.167,231.5 619.833,231.5 615.5,231.5C 615.5,230.167 615.5,228.833 615.5,227.5C 615.818,221.105 616.652,214.772 618,208.5C 621.824,194.872 625.49,181.205 629,167.5C 629.835,161.017 629.168,154.684 627,148.5C 618.206,130.54 605.373,116.207 588.5,105.5C 583.216,88.2686 573.883,73.602 560.5,61.5C 562.141,56.2138 564.808,51.5472 568.5,47.5 Z"/></g>
<g><path style="opacity:1" fill="#cb7c21" d="M 589.5,47.5 C 604.5,47.5 619.5,47.5 634.5,47.5C 625.684,71.8829 623.351,96.8829 627.5,122.5C 615.278,109.447 601.945,97.6133 587.5,87C 583.298,83.1334 579.465,78.9668 576,74.5C 574.767,72.1342 573.934,69.6342 573.5,67C 576.44,58.5576 581.774,52.0576 589.5,47.5 Z"/></g>
<g><path style="opacity:1" fill="#adb112" d="M 634.5,47.5 C 639.167,47.5 643.833,47.5 648.5,47.5C 641.218,68.5283 638.052,90.1949 639,112.5C 642.782,132.498 654.949,142.165 675.5,141.5C 678.025,141.497 680.359,141.163 682.5,140.5C 687.032,140.818 691.366,140.485 695.5,139.5C 704.582,138.584 713.582,137.084 722.5,135C 745.824,128.278 769.491,122.944 793.5,119C 800.492,118.5 807.492,118.334 814.5,118.5C 815.91,122.397 816.91,126.397 817.5,130.5C 806.258,131.083 794.924,132.25 783.5,134C 754.772,140.852 726.106,147.352 697.5,153.5C 693.102,153.294 688.768,153.627 684.5,154.5C 667.97,156.478 652.97,152.811 639.5,143.5C 634.222,137.282 630.222,130.282 627.5,122.5C 623.351,96.8829 625.684,71.8829 634.5,47.5 Z"/></g>
<g><path style="opacity:1" fill="#cb7c20" d="M 648.5,47.5 C 662.5,47.5 676.5,47.5 690.5,47.5C 683.916,78.179 681.249,109.179 682.5,140.5C 680.359,141.163 678.025,141.497 675.5,141.5C 654.949,142.165 642.782,132.498 639,112.5C 638.052,90.1949 641.218,68.5283 648.5,47.5 Z"/></g>
<g><path style="opacity:1" fill="#f7fb43" d="M 690.5,47.5 C 694.833,47.5 699.167,47.5 703.5,47.5C 700.241,66.0547 697.741,84.7214 696,103.5C 695.5,115.495 695.333,127.495 695.5,139.5C 691.366,140.485 687.032,140.818 682.5,140.5C 681.249,109.179 683.916,78.179 690.5,47.5 Z"/></g>
<g><path style="opacity:1" fill="#cc7c21" d="M 703.5,47.5 C 756.707,46.2484 793.707,69.9151 814.5,118.5C 807.492,118.334 800.492,118.5 793.5,119C 769.491,122.944 745.824,128.278 722.5,135C 713.582,137.084 704.582,138.584 695.5,139.5C 695.333,127.495 695.5,115.495 696,103.5C 697.741,84.7214 700.241,66.0547 703.5,47.5 Z"/></g>
<g><path style="opacity:1" fill="#cb7b21" d="M 588.5,105.5 C 605.373,116.207 618.206,130.54 627,148.5C 629.168,154.684 629.835,161.017 629,167.5C 625.49,181.205 621.824,194.872 618,208.5C 616.652,214.772 615.818,221.105 615.5,227.5C 614.566,228.568 614.232,229.901 614.5,231.5C 607.646,231.495 600.979,230.329 594.5,228C 583.167,223.999 576,216.166 573,204.5C 571.572,187.968 573.905,171.968 580,156.5C 588.574,140.463 591.407,123.463 588.5,105.5 Z"/></g>
<g><path style="opacity:1" fill="#cc7c21" d="M 817.5,130.5 C 820.045,140.2 821.045,150.2 820.5,160.5C 800.639,167.925 780.639,175.091 760.5,182C 745.969,186.882 731.303,187.549 716.5,184C 708.877,179.937 703.71,173.77 701,165.5C 699.515,161.551 698.349,157.551 697.5,153.5C 726.106,147.352 754.772,140.852 783.5,134C 794.924,132.25 806.258,131.083 817.5,130.5 Z"/></g>
<g><path style="opacity:1" fill="#cb7c21" d="M 639.5,143.5 C 652.97,152.811 667.97,156.478 684.5,154.5C 689.039,187.216 707.706,202.383 740.5,200C 748.212,198.591 755.878,196.924 763.5,195C 782.703,188.655 801.703,181.822 820.5,174.5C 820.5,186.833 820.5,199.167 820.5,211.5C 806.575,210.352 792.575,210.186 778.5,211C 738.743,216.793 699.076,223.126 659.5,230C 649.186,230.95 638.853,231.45 628.5,231.5C 628.923,225.118 629.756,218.785 631,212.5C 634.466,199.105 638.132,185.771 642,172.5C 643.191,162.615 642.357,152.948 639.5,143.5 Z"/></g>
<g><path style="opacity:1" fill="#f7fb43" d="M 697.5,153.5 C 698.349,157.551 699.515,161.551 701,165.5C 703.71,173.77 708.877,179.937 716.5,184C 731.303,187.549 745.969,186.882 760.5,182C 780.639,175.091 800.639,167.925 820.5,160.5C 820.5,165.167 820.5,169.833 820.5,174.5C 801.703,181.822 782.703,188.655 763.5,195C 755.878,196.924 748.212,198.591 740.5,200C 707.706,202.383 689.039,187.216 684.5,154.5C 688.768,153.627 693.102,153.294 697.5,153.5 Z"/></g>
<g><path style="opacity:1" fill="#cb7b21" d="M 820.5,224.5 C 820.5,235.167 820.5,245.833 820.5,256.5C 817.579,255.519 814.579,254.685 811.5,254C 802.167,253.333 792.833,253.333 783.5,254C 751.44,260.015 719.44,266.348 687.5,273C 676.199,274.425 664.865,274.759 653.5,274C 637.869,270.908 629.536,261.408 628.5,245.5C 642.558,244.977 656.558,243.81 670.5,242C 704.44,236.056 738.44,230.389 772.5,225C 788.493,223.268 804.493,223.101 820.5,224.5 Z"/></g>
<g><path style="opacity:1" fill="#5c7336" d="M 615.5,227.5 C 615.5,228.833 615.5,230.167 615.5,231.5C 619.833,231.5 624.167,231.5 628.5,231.5C 623.833,232.833 619.167,232.833 614.5,231.5C 614.232,229.901 614.566,228.568 615.5,227.5 Z"/></g>
<g><path style="opacity:1" fill="#1c8e51" d="M 618.5,245.5 C 621.833,245.5 625.167,245.5 628.5,245.5C 629.536,261.408 637.869,270.908 653.5,274C 664.865,274.759 676.199,274.425 687.5,273C 719.44,266.348 751.44,260.015 783.5,254C 792.833,253.333 802.167,253.333 811.5,254C 814.579,254.685 817.579,255.519 820.5,256.5C 820.5,261.167 820.5,265.833 820.5,270.5C 809.793,266.903 798.793,265.737 787.5,267C 758.009,272.232 728.675,278.232 699.5,285C 684.961,287.982 670.294,288.982 655.5,288C 630.477,284.81 616.811,270.644 614.5,245.5C 615.833,245.5 617.167,245.5 618.5,245.5 Z"/></g>
<g><path style="opacity:1" fill="#fad735" d="M 524.5,355.5 C 525.822,355.33 526.989,355.663 528,356.5C 528.667,374.167 528.667,391.833 528,409.5C 526.333,410.833 524.667,410.833 523,409.5C 522.333,392.167 522.333,374.833 523,357.5C 523.717,356.956 524.217,356.289 524.5,355.5 Z"/></g>
<g><path style="opacity:1" fill="#f9d535" d="M 512.5,365.5 C 514.144,365.286 515.644,365.62 517,366.5C 517.667,377.833 517.667,389.167 517,400.5C 515.333,401.833 513.667,401.833 512,400.5C 511.189,388.757 511.356,377.091 512.5,365.5 Z"/></g>
<g><path style="opacity:1" fill="#fee037" d="M 534.5,365.5 C 536.144,365.286 537.644,365.62 539,366.5C 539.667,377.833 539.667,389.167 539,400.5C 537.667,401.833 536.333,401.833 535,400.5C 534.5,388.838 534.333,377.171 534.5,365.5 Z"/></g>
<g><path style="opacity:1" fill="#f8d435" d="M 501.5,371.5 C 503.144,371.286 504.644,371.62 506,372.5C 506.831,379.856 506.665,387.189 505.5,394.5C 503.958,395.747 502.458,395.747 501,394.5C 500.202,386.754 500.369,379.087 501.5,371.5 Z"/></g>
<g><path style="opacity:1" fill="#fedf37" d="M 546.5,371.5 C 547.822,371.33 548.989,371.663 550,372.5C 550.667,379.833 550.667,387.167 550,394.5C 548.667,395.833 547.333,395.833 546,394.5C 545.202,386.754 545.369,379.087 546.5,371.5 Z"/></g>
<g><path style="opacity:1" fill="#fefdfb" d="M 342.5,376.5 C 350.059,375.28 355.559,377.947 359,384.5C 359.667,413.167 359.667,441.833 359,470.5C 357.718,495.615 344.551,508.949 319.5,510.5C 301.06,510.203 288.56,501.537 282,484.5C 276.263,466.552 277.596,449.218 286,432.5C 291.273,425.946 298.106,422.112 306.5,421C 316.506,419.282 325.839,420.949 334.5,426C 335.211,427.255 336.044,428.421 337,429.5C 335.418,414.313 335.085,398.979 336,383.5C 337.425,380.394 339.592,378.06 342.5,376.5 Z"/></g>
<g><path style="opacity:1" fill="#fefcfb" d="M 474.5,376.5 C 482.927,374.895 488.76,377.895 492,385.5C 492.667,424.167 492.667,462.833 492,501.5C 490.305,507.777 486.138,510.777 479.5,510.5C 473.791,510.405 469.957,507.738 468,502.5C 467.333,462.833 467.333,423.167 468,383.5C 469.694,380.642 471.861,378.309 474.5,376.5 Z"/></g>
<g><path style="opacity:1" fill="#fefdfc" d="M 678.5,386.5 C 678.167,409.176 678.5,431.843 679.5,454.5C 680.107,454.376 680.44,454.043 680.5,453.5C 693.47,446.03 703.137,435.53 709.5,422C 716.788,418.309 722.955,419.809 728,426.5C 728.667,430.167 728.667,433.833 728,437.5C 724.378,446.456 718.545,453.623 710.5,459C 727.326,468.151 734.493,482.317 732,501.5C 731.484,504.034 730.317,506.2 728.5,508C 712.521,513.37 705.354,507.537 707,490.5C 706.266,481.27 701.433,475.604 692.5,473.5C 687.199,474.066 683.366,476.733 681,481.5C 679.804,487.419 679.138,493.419 679,499.5C 677.282,508.622 671.782,512.122 662.5,510C 659.427,509.261 657.26,507.428 656,504.5C 654.351,464.226 654.017,423.893 655,383.5C 658.323,377.092 663.489,374.925 670.5,377C 675.154,378.465 677.821,381.632 678.5,386.5 Z"/></g>
<g><path style="opacity:1" fill="#ebccaa" d="M 678.5,386.5 C 679.167,408.833 679.833,431.167 680.5,453.5C 680.44,454.043 680.107,454.376 679.5,454.5C 678.5,431.843 678.167,409.176 678.5,386.5 Z"/></g>
<g><path style="opacity:1" fill="#fefcfb" d="M 140.5,420.5 C 151.245,419.5 161.578,421 171.5,425C 175.5,430.333 175.5,435.667 171.5,441C 168.961,442.047 166.295,442.547 163.5,442.5C 156.511,441.6 149.511,441.434 142.5,442C 136.93,445.63 133.763,450.797 133,457.5C 132.336,464.541 132.669,471.541 134,478.5C 136.034,486.857 141.368,490.524 150,489.5C 156.828,488.718 163.661,488.551 170.5,489C 171.931,489.465 173.097,490.299 174,491.5C 176.054,501.229 172.221,507.062 162.5,509C 148.297,512.369 134.964,510.369 122.5,503C 109.427,489.437 104.594,473.27 108,454.5C 111.295,435.709 122.128,424.376 140.5,420.5 Z"/></g>
<g><path style="opacity:1" fill="#fefdfc" d="M 218.5,420.5 C 255.307,419.816 271.14,437.816 266,474.5C 264.548,494.951 253.714,506.785 233.5,510C 207.559,513.031 192.059,501.865 187,476.5C 184.637,461.651 186.971,447.651 194,434.5C 200.651,426.98 208.818,422.313 218.5,420.5 Z"/></g>
<g><path style="opacity:1" fill="#fefdfb" d="M 406.5,420.5 C 417.347,419.57 427.681,421.403 437.5,426C 450.971,435.081 454.804,447.248 449,462.5C 444.994,470.596 438.494,475.429 429.5,477C 420.537,478.165 411.537,478.665 402.5,478.5C 402.963,483.262 405.296,486.762 409.5,489C 420.501,489.039 431.501,489.039 442.5,489C 445.366,490.393 446.699,492.726 446.5,496C 446.543,500.211 444.877,503.545 441.5,506C 427.353,511.645 413.019,511.978 398.5,507C 384.766,500.582 377.266,489.749 376,474.5C 373.963,461.157 375.963,448.49 382,436.5C 387.999,427.757 396.165,422.423 406.5,420.5 Z"/></g>
<g><path style="opacity:1" fill="#fefdfc" d="M 521.5,420.5 C 527.883,419.476 533.383,421.143 538,425.5C 538.333,426.5 538.667,427.5 539,428.5C 539.667,452.833 539.667,477.167 539,501.5C 537.69,507.328 534.023,510.328 528,510.5C 522.183,510.76 517.849,508.427 515,503.5C 514.333,478.167 514.333,452.833 515,427.5C 516.425,424.394 518.592,422.06 521.5,420.5 Z"/></g>
<g><path style="opacity:1" fill="#fefdfb" d="M 588.5,420.5 C 604.332,418.721 617.832,423.387 629,434.5C 632.09,438.682 634.09,443.349 635,448.5C 635.667,466.5 635.667,484.5 635,502.5C 634.261,505.573 632.428,507.74 629.5,509C 622.832,511.773 616.998,510.607 612,505.5C 610.706,487.566 610.04,469.566 610,451.5C 606.016,442.273 599.182,439.44 589.5,443C 586.131,445.365 583.964,448.532 583,452.5C 582.667,469.5 582.333,486.5 582,503.5C 579.423,508.127 575.423,510.46 570,510.5C 565.142,510.573 561.475,508.573 559,504.5C 557.887,494.89 557.387,485.223 557.5,475.5C 557.667,467.167 557.833,458.833 558,450.5C 561.422,433.577 571.589,423.577 588.5,420.5 Z"/></g>
<g><path style="opacity:1" fill="#cd7f28" d="M 410.5,439.5 C 423.661,439.483 428.828,445.817 426,458.5C 425.097,459.701 423.931,460.535 422.5,461C 416.564,462.139 410.564,462.805 404.5,463C 403.069,463.465 401.903,464.299 401,465.5C 399.004,454.748 402.17,446.082 410.5,439.5 Z"/></g>
<g><path style="opacity:1" fill="#cc7d24" d="M 221.5,441.5 C 232.204,439.756 238.704,444.09 241,454.5C 241.822,462.555 241.488,470.555 240,478.5C 237.271,487.764 231.104,491.264 221.5,489C 216.664,487.181 213.831,483.681 213,478.5C 211.039,469.161 211.039,459.827 213,450.5C 214.688,446.315 217.521,443.315 221.5,441.5 Z"/></g>
<g><path style="opacity:1" fill="#cc7d23" d="M 313.5,441.5 C 323.352,439.487 329.852,443.154 333,452.5C 333.886,461.895 333.553,471.228 332,480.5C 324.274,491.694 315.608,492.361 306,482.5C 303.582,472.643 302.915,462.643 304,452.5C 305.654,447.358 308.821,443.691 313.5,441.5 Z"/></g>
<g><path style="opacity:1" fill="#fedf37" d="M 371.5,535.5 C 391.983,534.155 400.15,543.488 396,563.5C 389.156,574.765 379.656,577.599 367.5,572C 357.896,564.006 356.063,554.506 362,543.5C 364.772,540.217 367.939,537.55 371.5,535.5 Z"/></g>
<g><path style="opacity:1" fill="#fedf37" d="M 461.5,535.5 C 476.411,533.423 485.078,539.756 487.5,554.5C 485.384,570.442 476.384,576.942 460.5,574C 450.316,568.459 446.482,559.959 449,548.5C 451.379,542.29 455.546,537.957 461.5,535.5 Z"/></g>
<g><path style="opacity:1" fill="#fedf37" d="M 368.5,593.5 C 374.167,593.5 379.833,593.5 385.5,593.5C 385.667,606.171 385.5,618.838 385,631.5C 372.798,633.793 361.798,631.126 352,623.5C 344.697,613.131 346.531,604.631 357.5,598C 361.157,596.178 364.824,594.678 368.5,593.5 Z"/></g>
<g><path style="opacity:1" fill="#fedf37" d="M 415.5,593.5 C 434.649,591.815 443.149,600.482 441,619.5C 434.54,632.542 424.707,636.042 411.5,630C 401.871,621.337 400.371,611.504 407,600.5C 409.628,597.79 412.461,595.456 415.5,593.5 Z"/></g>
<g><path style="opacity:1" fill="#fedf37" d="M 460.5,593.5 C 473.632,591.653 485.132,594.987 495,603.5C 500.448,612.858 498.615,620.692 489.5,627C 480.325,631.335 470.659,633.168 460.5,632.5C 460.5,619.5 460.5,606.5 460.5,593.5 Z"/></g>
<g><path style="opacity:1" fill="#fedf37" d="M 414.5,651.5 C 427.265,650.015 438.765,653.015 449,660.5C 455.363,671.168 453.196,679.668 442.5,686C 428.051,692.661 414.051,691.994 400.5,684C 390.444,673.501 391.444,664.168 403.5,656C 407.157,654.178 410.824,652.678 414.5,651.5 Z"/></g>
<g><path style="opacity:1" fill="#adb112" d="M 132.5,742.5 C 125.085,740.029 117.752,737.362 110.5,734.5C 100.017,715.184 85.0166,700.35 65.5,690C 51.1261,685.471 36.4595,684.304 21.5,686.5C 21.5,685.833 21.1667,685.5 20.5,685.5C 20.5,681.5 20.5,677.5 20.5,673.5C 53.8558,667.562 81.6891,677.229 104,702.5C 114.256,715.364 123.756,728.697 132.5,742.5 Z"/></g>
<g><path style="opacity:1" fill="#cb7c20" d="M 110.5,734.5 C 77.9221,723.386 48.2555,707.386 21.5,686.5C 36.4595,684.304 51.1261,685.471 65.5,690C 85.0166,700.35 100.017,715.184 110.5,734.5 Z"/></g>
<g><path style="opacity:1" fill="#b24b11" d="M 20.5,685.5 C 21.1667,685.5 21.5,685.833 21.5,686.5C 48.2555,707.386 77.9221,723.386 110.5,734.5C 117.752,737.362 125.085,740.029 132.5,742.5C 174.289,756.539 216.289,770.373 258.5,784C 287.443,793.807 314.777,806.807 340.5,823C 350.043,829.709 358.043,837.876 364.5,847.5C 358.833,847.5 353.167,847.5 347.5,847.5C 339.299,839.391 330.299,832.224 320.5,826C 307.899,818.866 294.899,812.533 281.5,807C 237.528,791.065 193.194,776.232 148.5,762.5C 140.838,759.835 133.172,757.168 125.5,754.5C 88.2207,742.026 53.2207,725.026 20.5,703.5C 20.5,697.5 20.5,691.5 20.5,685.5 Z"/></g>
<g><path style="opacity:1" fill="#cc7c21" d="M 20.5,703.5 C 53.2207,725.026 88.2207,742.026 125.5,754.5C 145.38,784.88 170.714,809.713 201.5,829C 213.646,835.74 225.98,841.907 238.5,847.5C 197.165,847.667 155.832,847.5 114.5,847C 59.2416,836.41 28.0749,803.243 21,747.5C 20.5001,732.837 20.3334,718.17 20.5,703.5 Z"/></g>
<g><path style="opacity:1" fill="#adb113" d="M 125.5,754.5 C 133.172,757.168 140.838,759.835 148.5,762.5C 173.414,795.897 205.414,820.063 244.5,835C 258.343,840.119 272.343,844.285 286.5,847.5C 270.5,847.5 254.5,847.5 238.5,847.5C 225.98,841.907 213.646,835.74 201.5,829C 170.714,809.713 145.38,784.88 125.5,754.5 Z"/></g>
<g><path style="opacity:1" fill="#cb7c21" d="M 148.5,762.5 C 193.194,776.232 237.528,791.065 281.5,807C 294.899,812.533 307.899,818.866 320.5,826C 330.299,832.224 339.299,839.391 347.5,847.5C 327.167,847.5 306.833,847.5 286.5,847.5C 272.343,844.285 258.343,840.119 244.5,835C 205.414,820.063 173.414,795.897 148.5,762.5 Z"/></g>
</svg>
